<svg xmlns="http://www.w3.org/2000/svg" viewBox="0 0 100 100">
    <style>
        #fg { fill: #000; }
        @media (prefers-color-scheme: dark) {
            #fg { fill: #fff; }
        }
    </style>
    <path id="fg" d="M92.9 15.1c.2-1 1.8-1.6 2.4-.6 2 3.5 3 7.5 3.9 11.5a42 42 0 0 1-.1 16.8c-.7 2-2.2 4-4.4 4.3a20.7 20.7 0 0 1-15.7-4c-1.9-1.2-2.8-3.4-4.4-5a10.5 10.5 0 0 1-3-9c.4-1.9 2-3.8 4.2-3.2l1.2.6c1.2 1.5.5 3.5 1 5.2-.1 2 1.7 3.2 2.6 4.7 1.7 2.6 4.5 4 7.2 5.2a16 16 0 0 0 7 1.2c2-2.3 1.8-5.7 2-8.6.4-4.8-.8-9.5-2-14.1-.5-1.7-1.4-3.3-2-5zM64.1 32.2c.2-1.2 2.3-1.3 2.6 0 .2 1.5-.3 3-.5 4.5-1.1 6-.2 12.2.6 18.2.3 1.8 1 3.6.5 5.4-.6 1.6-2.7 2.3-4.2 1.5a12 12 0 0 1-3.8-4.3c.3 2.6 1.8 4.9 2.3 7.5.4 1.8-1.3 3.8-3.2 3.3-2.1-.8-3.4-2.8-5-4.2-1.3-.9-2.6-1.6-3.6-2.7-1.5-1.4-3.3-2.3-4.8-3.7-2.3-2-5-4-6.2-6.8-.3-1.5-.2-3-.2-4.4.5-1.1 2.1-1.4 3-.7 2.3 1 3.3 3.5 5 5.2 1.5 1.7 3 3.5 5 4.7 1.6 1.4 3.4 2.6 4.7 4.3-1-2.9-1.6-5.8-2.3-8.7-.2-1.4-1.4-2.9-.3-4.1 1.1-1 2.8-.3 3.6.7 2 2.7 4.8 4.9 6 8.1-.3-5.5-.9-11-.3-16.6l1.1-7.2zM28.9 49c2-.5 2.1 2.1 2.8 3.4 1.7 3.4 3.6 6.8 4.7 10.5 1.2 5.3.5 11.1-2.2 15.9-1.5 2.1-3 4.4-5.6 5.5-2.9 1.6-6.3 2-9.5 1.6-2-.4-4-1.3-5.8-2A27.6 27.6 0 0 1 5.4 76c-2.1-2.3-3.2-5.3-4.6-8a8 8 0 0 1-.4-6.1c.5-1.3 1.6-2.7 3.1-2.5 1 0 1.9.8 2.2 1.7.3 1.8-.3 3.8.7 5.5.9 1.7 1.3 3.6 2.5 5 2.1 2.6 3.9 5.5 6.6 7.4 3 1.8 6.5 3.1 10 2.4 1.2-.4 2.4-.8 3.5-1.5 4.6-4 6-10.6 4.9-16.3-1.3-4.7-4.2-8.6-5.7-13.2-.2-.6 0-1.3.7-1.5z"/>
</svg>